<svg width="77" height="85" viewBox="0 0 77 85" fill="none" xmlns="http://www.w3.org/2000/svg">
<path d="M42.9535 2.16325C39.9086 0.557983 38.2008 0.667482 35.156 2.16325L5.44889 18.8585C3.69455 20.0576 2.71445 21.0138 1 24.8143V61.5535C1.40515 63.2891 1.98465 64.1793 3.58323 65.6437L35.156 83.4631C37.7561 84.2678 39.565 84.0842 42.9535 83.4631L72.2779 65.6437C73.8553 65.0804 74.5434 64.2856 75.2439 61.5535V24.8143C74.7532 21.5947 74.1327 20.2517 72.2779 18.8585L42.9535 2.16325Z" fill="url(#paint0_linear_132_13)" stroke="black" stroke-width="2"/>
<path d="M53.7838 33.4205L42.6534 55.206L39.6751 51.0192L46.2322 37.864L32.8726 40.7033L22.7886 28.6433L57.6451 23.6032C62.506 25.3809 64.0203 27.4209 64.2865 33.1756L48.8338 63.6448L45.5203 59.0995L59.0457 34.1071C59.0444 31.2381 58.5356 29.8594 55.8303 28.2173L31.8205 32.1956L34.7647 35.8929L53.7838 33.4205Z" fill="#F97316" stroke="black"/>
<rect x="24.7422" y="38.6748" width="8.4693" height="2.8694" rx="1.4347" transform="rotate(144.83 24.7422 38.6748)" fill="#F97316"/>
<rect x="40.9844" y="61.2334" width="8.4693" height="2.8694" rx="1.4347" transform="rotate(144.83 40.9844 61.2334)" fill="#F97316"/>
<rect x="29.2461" y="43.749" width="14.6157" height="3.26549" rx="1.63274" transform="rotate(144.83 29.2461 43.749)" fill="#F97316"/>
<rect x="33.5508" y="49.7012" width="10.7307" height="3.26549" rx="1.63274" transform="rotate(144.83 33.5508 49.7012)" fill="#F97316"/>
<rect x="37.7852" y="55.7656" width="14.7017" height="3.26549" rx="1.63274" transform="rotate(144.83 37.7852 55.7656)" fill="#F97316"/>
<rect x="22.3125" y="57.751" width="5.59325" height="3.26549" rx="1.63274" transform="rotate(144.83 22.3125 57.751)" fill="#F97316"/>
<defs>
<linearGradient id="paint0_linear_132_13" x1="38.1219" y1="2.16333" x2="38.1219" y2="83.4632" gradientUnits="userSpaceOnUse">
<stop offset="0.267908" stop-color="#4002BD"/>
</linearGradient>
</defs>
</svg>
